<mxfile host="drawio-plugin" modified="2024-09-26T09:31:00.021Z" agent="Mozilla/5.0 (Windows NT 10.0; Win64; x64) AppleWebKit/537.36 (KHTML, like Gecko) Chrome/122.0.0.0 Safari/537.36" etag="HW5IP1X0T_P-WFhJ-Xdq" version="22.1.22" type="embed">
  <diagram id="23iRSUPoRavnBvh4doch" name="Page-1">
    <mxGraphModel dx="372" dy="416" grid="1" gridSize="10" guides="1" tooltips="1" connect="1" arrows="1" fold="1" page="1" pageScale="1" pageWidth="827" pageHeight="1169" background="#7EA6E0" math="0" shadow="0">
      <root>
        <mxCell id="0" />
        <mxCell id="1" parent="0" />
        <mxCell id="6" value="Config" style="sketch=0;points=[[0,0,0],[0.25,0,0],[0.5,0,0],[0.75,0,0],[1,0,0],[0,1,0],[0.25,1,0],[0.5,1,0],[0.75,1,0],[1,1,0],[0,0.25,0],[0,0.5,0],[0,0.75,0],[1,0.25,0],[1,0.5,0],[1,0.75,0]];points=[[0,0,0],[0.25,0,0],[0.5,0,0],[0.75,0,0],[1,0,0],[0,1,0],[0.25,1,0],[0.5,1,0],[0.75,1,0],[1,1,0],[0,0.25,0],[0,0.5,0],[0,0.75,0],[1,0.25,0],[1,0.5,0],[1,0.75,0]];outlineConnect=0;fontColor=#232F3E;fillColor=#E7157B;strokeColor=#ffffff;dashed=0;verticalLabelPosition=bottom;verticalAlign=top;align=center;html=1;fontSize=12;fontStyle=0;aspect=fixed;shape=mxgraph.aws4.resourceIcon;resIcon=mxgraph.aws4.app_config;" parent="1" vertex="1">
          <mxGeometry x="37" y="120" width="44" height="44" as="geometry" />
        </mxCell>
        <mxCell id="7" value="Test data" style="sketch=0;outlineConnect=0;fontColor=#232F3E;gradientColor=none;fillColor=#7AA116;strokeColor=none;dashed=0;verticalLabelPosition=bottom;verticalAlign=top;align=center;html=1;fontSize=12;fontStyle=0;aspect=fixed;pointerEvents=1;shape=mxgraph.aws4.data_set;" parent="1" vertex="1">
          <mxGeometry x="35" y="613.5" width="63" height="78" as="geometry" />
        </mxCell>
        <mxCell id="10" value="Test layer" style="rounded=1;whiteSpace=wrap;html=1;align=right;labelPosition=left;verticalLabelPosition=top;verticalAlign=bottom;fontSize=18;fillColor=#dae8fc;strokeColor=#6c8ebf;" parent="1" vertex="1">
          <mxGeometry x="125" y="399" width="380" height="253" as="geometry" />
        </mxCell>
        <mxCell id="12" value="Website" style="verticalLabelPosition=bottom;html=1;verticalAlign=top;align=center;strokeColor=none;fillColor=#00BEF2;shape=mxgraph.azure.website_generic;pointerEvents=1;" parent="1" vertex="1">
          <mxGeometry x="580" y="140" width="192.06" height="163.25" as="geometry" />
        </mxCell>
        <mxCell id="9" value="Driver layer" style="rounded=1;whiteSpace=wrap;html=1;align=right;labelPosition=left;verticalLabelPosition=top;verticalAlign=bottom;fontSize=18;fillColor=#dae8fc;strokeColor=#6c8ebf;" parent="1" vertex="1">
          <mxGeometry x="125" y="70" width="380" height="253" as="geometry" />
        </mxCell>
        <mxCell id="32" style="edgeStyle=orthogonalEdgeStyle;rounded=1;orthogonalLoop=1;jettySize=auto;html=1;curved=0;" parent="1" source="4" target="5" edge="1">
          <mxGeometry relative="1" as="geometry">
            <Array as="points">
              <mxPoint x="445" y="363" />
              <mxPoint x="445" y="363" />
            </Array>
          </mxGeometry>
        </mxCell>
        <mxCell id="33" value="Calls" style="edgeLabel;html=1;align=center;verticalAlign=middle;resizable=0;points=[];" parent="32" vertex="1" connectable="0">
          <mxGeometry x="0.1961" y="-3" relative="1" as="geometry">
            <mxPoint x="7" y="37" as="offset" />
          </mxGeometry>
        </mxCell>
        <mxCell id="4" value="WebDriver&lt;br&gt;Instance" style="html=1;outlineConnect=0;whiteSpace=wrap;fillColor=#CCCCFF;shape=mxgraph.archimate3.application;appType=driver;archiType=oct;" parent="1" vertex="1">
          <mxGeometry x="365" y="399" width="100" height="50" as="geometry" />
        </mxCell>
        <mxCell id="38" style="edgeStyle=orthogonalEdgeStyle;rounded=0;orthogonalLoop=1;jettySize=auto;html=1;dashed=1;dashPattern=1 1;endArrow=diamond;endFill=1;startArrow=none;startFill=0;" parent="1" source="5" target="37" edge="1">
          <mxGeometry relative="1" as="geometry">
            <Array as="points">
              <mxPoint x="414" y="170" />
              <mxPoint x="414" y="170" />
            </Array>
          </mxGeometry>
        </mxCell>
        <mxCell id="39" value="Utilizes" style="edgeLabel;html=1;align=center;verticalAlign=middle;resizable=0;points=[];" parent="38" vertex="1" connectable="0">
          <mxGeometry x="-0.2283" y="1" relative="1" as="geometry">
            <mxPoint x="1" y="-8" as="offset" />
          </mxGeometry>
        </mxCell>
        <mxCell id="5" value="Generic Page class" style="html=1;whiteSpace=wrap;strokeColor=none;fillColor=#0079D6;labelPosition=center;verticalLabelPosition=middle;verticalAlign=top;align=center;fontSize=12;outlineConnect=0;spacingTop=-6;fontColor=#FFFFFF;sketch=0;shape=mxgraph.sitemap.page;" parent="1" vertex="1">
          <mxGeometry x="385" y="173.5" width="120" height="70" as="geometry" />
        </mxCell>
        <mxCell id="21" style="edgeStyle=orthogonalEdgeStyle;rounded=1;orthogonalLoop=1;jettySize=auto;html=1;curved=0;" parent="1" source="8" target="4" edge="1">
          <mxGeometry relative="1" as="geometry">
            <Array as="points">
              <mxPoint x="325" y="213" />
              <mxPoint x="325" y="423" />
            </Array>
          </mxGeometry>
        </mxCell>
        <mxCell id="22" value="Provides" style="edgeLabel;html=1;align=center;verticalAlign=middle;resizable=0;points=[];" parent="21" vertex="1" connectable="0">
          <mxGeometry x="0.2642" relative="1" as="geometry">
            <mxPoint y="-2" as="offset" />
          </mxGeometry>
        </mxCell>
        <mxCell id="8" value="WebDriver factory" style="outlineConnect=0;dashed=0;verticalLabelPosition=middle;verticalAlign=middle;align=right;html=1;shape=mxgraph.aws3.factory;fillColor=#5294CF;gradientColor=none;labelPosition=left;" parent="1" vertex="1">
          <mxGeometry x="229.25" y="173.5" width="79.5" height="79.5" as="geometry" />
        </mxCell>
        <mxCell id="19" value="" style="edgeStyle=orthogonalEdgeStyle;rounded=1;orthogonalLoop=1;jettySize=auto;html=1;entryX=0.5;entryY=1;entryDx=0;entryDy=0;entryPerimeter=0;curved=0;" parent="1" source="3" target="8" edge="1">
          <mxGeometry relative="1" as="geometry" />
        </mxCell>
        <mxCell id="20" value="Calls" style="edgeLabel;html=1;align=center;verticalAlign=middle;resizable=0;points=[];" parent="19" vertex="1" connectable="0">
          <mxGeometry x="-0.2877" y="-1" relative="1" as="geometry">
            <mxPoint x="-5" y="-8" as="offset" />
          </mxGeometry>
        </mxCell>
        <mxCell id="3" value="BaseTest" style="image;aspect=fixed;html=1;points=[];align=center;fontSize=12;image=img/lib/azure2/other/Test_Base.svg;verticalAlign=middle;labelPosition=left;verticalLabelPosition=middle;" parent="1" vertex="1">
          <mxGeometry x="235" y="437.5" width="68" height="48" as="geometry" />
        </mxCell>
        <mxCell id="16" value="Extends" style="edgeStyle=orthogonalEdgeStyle;rounded=0;orthogonalLoop=1;jettySize=auto;html=1;" parent="1" source="2" target="3" edge="1">
          <mxGeometry x="0.0179" y="4" relative="1" as="geometry">
            <mxPoint y="1" as="offset" />
          </mxGeometry>
        </mxCell>
        <mxCell id="2" value="&lt;div style=&quot;text-align: center;&quot;&gt;Generic&lt;/div&gt;&lt;div style=&quot;text-align: center;&quot;&gt;Parameterized&lt;/div&gt;&lt;div style=&quot;text-align: center;&quot;&gt;test&lt;/div&gt;" style="image;aspect=fixed;html=1;points=[];align=right;fontSize=12;image=img/lib/azure2/general/Web_Test.svg;labelPosition=left;verticalLabelPosition=middle;verticalAlign=middle;" parent="1" vertex="1">
          <mxGeometry x="233" y="541.5" width="72" height="72" as="geometry" />
        </mxCell>
        <mxCell id="17" value="Fed to" style="edgeStyle=orthogonalEdgeStyle;rounded=1;orthogonalLoop=1;jettySize=auto;html=1;dashed=1;curved=0;endArrow=classicThin;endFill=1;" parent="1" source="7" target="2" edge="1">
          <mxGeometry x="-0.426" relative="1" as="geometry">
            <Array as="points">
              <mxPoint x="265" y="663" />
            </Array>
            <mxPoint as="offset" />
          </mxGeometry>
        </mxCell>
        <mxCell id="23" style="edgeStyle=orthogonalEdgeStyle;rounded=1;orthogonalLoop=1;jettySize=auto;html=1;entryX=0.5;entryY=1;entryDx=0;entryDy=0;entryPerimeter=0;exitX=1.042;exitY=0.549;exitDx=0;exitDy=0;exitPerimeter=0;curved=0;" parent="1" source="2" target="4" edge="1">
          <mxGeometry relative="1" as="geometry">
            <Array as="points">
              <mxPoint x="308" y="583" />
              <mxPoint x="415" y="583" />
            </Array>
          </mxGeometry>
        </mxCell>
        <mxCell id="24" value="Uses" style="edgeLabel;html=1;align=center;verticalAlign=middle;resizable=0;points=[];" parent="23" vertex="1" connectable="0">
          <mxGeometry x="-0.2919" y="-1" relative="1" as="geometry">
            <mxPoint x="-27" y="-1" as="offset" />
          </mxGeometry>
        </mxCell>
        <mxCell id="28" style="edgeStyle=orthogonalEdgeStyle;rounded=1;orthogonalLoop=1;jettySize=auto;html=1;dashed=1;curved=0;endArrow=classicThin;endFill=1;" parent="1" source="6" target="8" edge="1">
          <mxGeometry relative="1" as="geometry">
            <Array as="points">
              <mxPoint x="269" y="143" />
            </Array>
          </mxGeometry>
        </mxCell>
        <mxCell id="29" value="Fed to" style="edgeLabel;html=1;align=center;verticalAlign=middle;resizable=0;points=[];" parent="28" vertex="1" connectable="0">
          <mxGeometry x="0.0699" y="1" relative="1" as="geometry">
            <mxPoint x="-26" y="-12" as="offset" />
          </mxGeometry>
        </mxCell>
        <mxCell id="30" style="edgeStyle=orthogonalEdgeStyle;rounded=1;orthogonalLoop=1;jettySize=auto;html=1;entryX=0.25;entryY=1;entryDx=0;entryDy=0;entryPerimeter=0;curved=0;" parent="1" source="4" target="5" edge="1">
          <mxGeometry relative="1" as="geometry" />
        </mxCell>
        <mxCell id="31" value="Initializes" style="edgeLabel;html=1;align=center;verticalAlign=middle;resizable=0;points=[];" parent="30" vertex="1" connectable="0">
          <mxGeometry x="-0.5203" y="-6" relative="1" as="geometry">
            <mxPoint x="-16" y="-19" as="offset" />
          </mxGeometry>
        </mxCell>
        <mxCell id="36" value="Interacts" style="edgeStyle=orthogonalEdgeStyle;rounded=0;orthogonalLoop=1;jettySize=auto;html=1;entryX=0;entryY=0.423;entryDx=0;entryDy=0;entryPerimeter=0;startArrow=classic;startFill=1;" parent="1" target="12" edge="1">
          <mxGeometry relative="1" as="geometry">
            <mxPoint x="505" y="209" as="sourcePoint" />
          </mxGeometry>
        </mxCell>
        <mxCell id="37" value="Driver&lt;br&gt;&amp;nbsp;Wait&lt;br&gt;&amp;nbsp;configuration" style="sketch=0;points=[[0,0,0],[0.25,0,0],[0.5,0,0],[0.75,0,0],[1,0,0],[0,1,0],[0.25,1,0],[0.5,1,0],[0.75,1,0],[1,1,0],[0,0.25,0],[0,0.5,0],[0,0.75,0],[1,0.25,0],[1,0.5,0],[1,0.75,0]];points=[[0,0,0],[0.25,0,0],[0.5,0,0],[0.75,0,0],[1,0,0],[0,1,0],[0.25,1,0],[0.5,1,0],[0.75,1,0],[1,1,0],[0,0.25,0],[0,0.5,0],[0,0.75,0],[1,0.25,0],[1,0.5,0],[1,0.75,0]];outlineConnect=0;fontColor=#232F3E;fillColor=#E7157B;strokeColor=#ffffff;dashed=0;verticalLabelPosition=middle;verticalAlign=middle;align=right;html=1;fontSize=12;fontStyle=0;aspect=fixed;shape=mxgraph.aws4.resourceIcon;resIcon=mxgraph.aws4.config;labelPosition=left;" parent="1" vertex="1">
          <mxGeometry x="385" y="70" width="40" height="40" as="geometry" />
        </mxCell>
        <mxCell id="40" style="edgeStyle=orthogonalEdgeStyle;rounded=1;orthogonalLoop=1;jettySize=auto;html=1;dashed=1;curved=0;endArrow=classicThin;endFill=1;" parent="1" source="6" target="37" edge="1">
          <mxGeometry relative="1" as="geometry">
            <mxPoint x="390" y="90" as="targetPoint" />
            <Array as="points">
              <mxPoint x="390" y="142" />
            </Array>
          </mxGeometry>
        </mxCell>
        <mxCell id="41" style="edgeStyle=orthogonalEdgeStyle;rounded=1;orthogonalLoop=1;jettySize=auto;html=1;dashed=1;curved=0;endArrow=classicThin;endFill=1;" parent="1" source="6" target="5" edge="1">
          <mxGeometry relative="1" as="geometry">
            <Array as="points">
              <mxPoint x="390" y="142" />
            </Array>
          </mxGeometry>
        </mxCell>
      </root>
    </mxGraphModel>
  </diagram>
</mxfile>
